<?xml version="1.0" standalone="no"?><!DOCTYPE svg PUBLIC "-//W3C//DTD SVG 1.1//EN" "http://www.w3.org/Graphics/SVG/1.1/DTD/svg11.dtd"><svg t="1620871050925" class="icon" viewBox="0 0 1024 1024" version="1.1" xmlns="http://www.w3.org/2000/svg" p-id="14961" width="800" height="800" xmlns:xlink="http://www.w3.org/1999/xlink"><defs><style type="text/css"></style></defs><path d="M512 512m-512 0a512 512 0 1 0 1024 0 512 512 0 1 0-1024 0Z" fill="#FFFFFF" p-id="14962"></path><path d="M512 512m-512 0a512 512 0 1 0 1024 0 512 512 0 1 0-1024 0Z" fill="#FFC807" p-id="14963"></path><path d="M429.292308 1016.123077C185.107692 976.738462 0 768 0 512v-15.753846L315.076923 196.923077l452.923077 452.923077-338.707692 366.276923z" fill="#FDB201" p-id="14964"></path><path d="M393.846154 669.538462v157.538461c0 23.630769-15.753846 39.384615-39.384616 39.384615s-39.384615-15.753846-39.384615-39.384615V236.307692c0-23.630769 15.753846-39.384615 39.384615-39.384615h425.353847c11.815385 0 19.692308 7.876923 19.692307 19.692308v7.876923l-102.4 220.553846 98.461539 196.923077c3.938462 7.876923 0 19.692308-7.876923 27.569231-3.938462 0-3.938462 3.938462-7.876923 3.938461H393.846154z" fill="#FFF9E2" p-id="14965"></path></svg>